<?xml version="1.0" standalone="no"?>
<!DOCTYPE svg PUBLIC "-//W3C//DTD SVG 20010904//EN"
 "http://www.w3.org/TR/2001/REC-SVG-20010904/DTD/svg10.dtd">
<svg version="1.0" xmlns="http://www.w3.org/2000/svg"
 width="400.000000pt" height="400.000000pt" viewBox="0 0 400.000000 400.000000"
 preserveAspectRatio="xMidYMid meet">

<g transform="translate(0.000000,400.000000) scale(0.100000,-0.100000)"
fill="#000000" stroke="none">
<path d="M1516 3508 c-28 -97 -105 -464 -116 -554 -19 -155 -38 -215 -79 -254
-65 -63 -118 -143 -146 -222 -46 -131 -45 -132 -94 82 -53 226 -77 295 -106
295 -29 0 -30 -33 -6 -134 11 -47 29 -134 41 -192 11 -59 32 -151 46 -205 24
-91 26 -118 29 -334 3 -269 4 -278 51 -459 37 -144 73 -212 158 -297 41 -40
184 -150 238 -182 23 -13 28 -23 28 -57 0 -22 5 -58 10 -80 35 -144 54 -385
33 -406 -6 -6 -28 -16 -49 -24 -26 -9 -39 -19 -39 -32 0 -27 52 -28 105 -1
l45 23 3 60 c4 76 -12 241 -37 370 -11 55 -19 101 -17 102 2 2 61 -11 132 -28
116 -29 150 -32 339 -38 l210 -6 17 -69 c10 -38 21 -133 26 -213 10 -166 11
-169 106 -197 61 -19 81 -13 74 20 -2 11 -23 24 -60 37 -54 17 -58 21 -58 50
-2 107 -21 289 -36 331 -16 47 -16 50 1 63 11 7 25 13 32 13 22 0 144 58 218
105 78 48 144 112 200 194 41 59 105 180 105 197 0 6 11 36 24 67 36 81 65
174 76 242 6 33 16 94 24 135 8 41 15 107 15 146 1 38 6 75 12 81 6 6 15 75
20 154 5 79 16 221 24 314 19 216 19 289 1 304 -17 14 -43 5 -50 -17 -6 -17
-32 -289 -43 -439 -3 -45 -10 -80 -14 -77 -5 3 -9 13 -9 23 0 52 -161 293
-216 324 -10 6 -13 16 -8 30 4 12 7 114 7 227 0 315 -43 491 -114 473 -55 -15
-148 -180 -208 -370 l-37 -118 -50 5 c-27 3 -116 5 -199 5 -162 0 -229 -13
-223 -43 2 -10 12 -16 23 -15 109 13 236 14 318 3 82 -11 96 -15 101 -33 4
-17 8 -18 20 -8 12 11 25 8 68 -11 150 -69 313 -208 399 -341 92 -142 139
-453 97 -647 -9 -41 -19 -95 -23 -119 -3 -24 -32 -113 -64 -198 -94 -246 -192
-375 -353 -466 -135 -75 -223 -101 -353 -102 -173 -2 -320 13 -442 45 -134 35
-171 53 -288 140 -168 125 -225 201 -262 349 -39 151 -53 253 -59 431 -8 195
5 280 66 452 72 200 175 300 420 407 136 58 187 71 196 47 10 -25 34 -19 34 8
0 19 6 25 28 28 38 4 30 22 -13 26 -31 3 -36 7 -45 45 -32 122 -126 360 -205
518 -29 57 -40 69 -59 69 -21 0 -27 -8 -40 -52z m150 -261 c73 -159 128 -317
111 -321 -103 -31 -169 -56 -252 -96 -55 -26 -101 -47 -103 -46 -1 2 5 65 13
142 13 116 49 289 106 508 l11 39 30 -54 c16 -30 54 -107 84 -172z m1035 100
c26 -86 42 -251 36 -352 -3 -49 -2 -119 2 -155 5 -36 7 -67 5 -68 -1 -2 -57
32 -124 77 -66 44 -132 84 -145 87 -14 3 -25 9 -25 13 0 4 17 58 39 121 53
159 156 347 185 337 5 -2 18 -29 27 -60z"/>
<path d="M1766 2504 c-39 -38 -5 -124 49 -124 72 0 90 91 24 125 -36 19 -54
19 -73 -1z"/>
<path d="M2282 2414 c-40 -28 -25 -77 34 -107 28 -14 33 -14 53 -1 31 22 29
76 -5 103 -32 25 -52 26 -82 5z"/>
<path d="M1504 2195 c-9 -23 10 -33 76 -40 30 -3 82 -12 115 -19 66 -15 75
-13 59 12 -16 25 -90 49 -172 58 -63 6 -72 4 -78 -11z"/>
<path d="M1918 2130 c-34 -21 -16 -90 36 -139 31 -30 31 -32 2 -102 -34 -83
-111 -194 -152 -218 -73 -43 -105 -22 -132 88 -9 39 -21 69 -27 68 -33 -11 0
-153 46 -199 26 -27 35 -29 80 -26 l51 3 22 -70 c38 -120 62 -150 119 -151 23
-1 57 -5 74 -9 48 -11 83 30 106 126 10 40 20 75 22 77 2 2 17 -5 33 -17 37
-26 103 -28 143 -4 40 24 77 103 85 182 l7 63 71 -6 c39 -3 94 -8 122 -12 42
-5 52 -3 57 10 7 18 5 19 -58 35 -53 14 -204 14 -244 0 -35 -12 -40 -26 -12
-37 17 -7 18 -10 4 -62 -20 -78 -43 -112 -86 -129 -35 -13 -40 -13 -65 6 -15
11 -49 59 -77 106 -27 47 -67 104 -89 126 -35 35 -38 43 -32 75 6 29 15 40 46
56 68 35 66 90 -3 136 -45 30 -120 42 -149 24z m116 -332 c13 -18 41 -61 61
-96 35 -61 36 -64 22 -95 -8 -18 -18 -43 -22 -57 -9 -30 -34 -60 -50 -60 -6 0
-22 12 -35 27 l-23 27 -23 -29 c-30 -37 -44 -26 -78 62 l-26 66 40 43 c21 23
50 65 65 93 14 28 30 51 35 51 5 0 20 -15 34 -32z"/>
<path d="M2448 2099 c-67 -10 -145 -46 -131 -60 7 -7 38 -5 89 5 43 8 96 18
117 21 38 6 50 28 21 39 -18 7 -17 7 -96 -5z"/>
<path d="M1462 2033 c-24 -3 -32 -9 -30 -21 3 -15 21 -17 131 -20 74 -1 127 1
127 7 0 24 -146 46 -228 34z"/>
<path d="M2403 1950 c-56 -6 -72 -15 -57 -30 11 -11 222 -15 232 -5 3 3 -1 12
-9 19 -17 16 -93 24 -166 16z"/>
<path d="M1439 1879 c-78 -20 -89 -25 -89 -41 0 -8 19 -8 63 -2 34 5 99 8 145
8 45 -1 82 2 82 7 0 17 -47 39 -88 42 -23 2 -74 -5 -113 -14z"/>
</g>
</svg>
